<svg width="16" height="16" viewBox="0 0 16 16" fill="none" xmlns="http://www.w3.org/2000/svg">
<path d="M12.25 0H3.75C1.67893 0 0 1.67893 0 3.75V12.25C0 14.3211 1.67893 16 3.75 16H12.25C14.3211 16 16 14.3211 16 12.25V3.75C16 1.67893 14.3211 0 12.25 0Z" fill="#1C3D72"/>
<path fill-rule="evenodd" clip-rule="evenodd" d="M5.70629 9.85642C6.64456 9.31394 7.27586 8.29967 7.27586 7.13793H9.56897L7.75862 10.2759H9.56897L7.75862 13.4138L5.70629 9.85642ZM5.70629 9.85642C5.24487 10.1232 4.70923 10.2759 4.13793 10.2759C2.4049 10.2759 1 8.87096 1 7.13793C1 5.4049 2.4049 4 4.13793 4C5.87096 4 7.27586 5.4049 7.27586 7.13793H4.13793L5.70629 9.85642ZM9.56897 10.2759H15L11.3793 4L9.56897 7.13793H11.3793L9.56897 10.2759Z" fill="url(#paint0_linear_0_1)"/>
<defs>
<linearGradient id="paint0_linear_0_1" x1="8" y1="4" x2="8" y2="13.4138" gradientUnits="userSpaceOnUse">
<stop offset="0.145833" stop-color="white"/>
<stop offset="0.822917"/>
</linearGradient>
</defs>
</svg>
