<svg width="16" height="16" viewBox="0 0 16 16" fill="none" xmlns="http://www.w3.org/2000/svg">
<path d="M7.476 0.00421938C7.4416 0.00733893 7.33208 0.0182973 7.23352 0.0260561C4.96104 0.230907 2.8324 1.45697 1.48416 3.34134C0.73352 4.38911 0.25328 5.57758 0.07192 6.83652C0.00784001 7.27597 0 7.4058 0 8.00155C0 8.59738 0.00783997 8.72721 0.072 9.16658C0.50672 12.1706 2.6448 14.6947 5.54448 15.6298C6.06376 15.7971 6.61112 15.9113 7.2336 15.9801C7.47608 16.0066 8.52392 16.0066 8.7664 15.9801C9.84088 15.8612 10.7511 15.5954 11.6489 15.1372C11.7865 15.0669 11.8131 15.0481 11.7943 15.0325C11.7818 15.023 11.1953 14.2364 10.4915 13.2857L9.21216 11.5577L7.60896 9.18538C6.72688 7.88117 6.0012 6.8146 5.99488 6.8146C5.98864 6.81308 5.9824 7.86709 5.97928 9.1541C5.97456 11.4075 5.97304 11.4982 5.94488 11.5514C5.90424 11.628 5.87296 11.6593 5.8072 11.6937C5.7572 11.7187 5.71336 11.7234 5.4772 11.7234H5.20664L5.13464 11.6781C5.09006 11.6501 5.05385 11.6107 5.02984 11.5639L4.99704 11.4935L5.00024 8.35814L5.00488 5.22115L5.05336 5.16012C5.0784 5.12732 5.1316 5.08509 5.16912 5.06477C5.2332 5.0335 5.25824 5.03038 5.5288 5.03038C5.84792 5.03038 5.90104 5.04286 5.984 5.13356C6.00744 5.1586 6.87544 6.46593 7.914 8.04066C8.96541 9.63459 10.0175 11.2281 11.0702 12.8212L12.337 14.74L12.4012 14.6978C12.9689 14.3287 13.5695 13.8033 14.045 13.2559C15.0569 12.094 15.7091 10.6772 15.9281 9.16658C15.9922 8.72721 16 8.59738 16 8.00155C16 7.40572 15.9922 7.27597 15.9281 6.83652C15.4933 3.83247 13.3552 1.30851 10.4555 0.373366C9.94408 0.20755 9.39984 0.0934065 8.78984 0.0246164C8.63968 0.00893863 7.60584 -0.00817888 7.47608 0.00429932M10.7511 4.84272C10.8262 4.88024 10.8872 4.95215 10.9091 5.02718C10.9216 5.06789 10.9247 5.93737 10.9216 7.89676L10.9169 10.7085L10.4211 9.94847L9.92376 9.1885V7.14463C9.92376 5.82322 9.93 5.08037 9.93936 5.04437C9.9644 4.95687 10.0191 4.88808 10.0942 4.84736C10.1583 4.81457 10.1818 4.81137 10.4274 4.81137C10.6589 4.81137 10.6995 4.81457 10.7511 4.84272Z" fill="black"/>
</svg>
