<svg width="16" height="16" viewBox="0 0 16 16" fill="none" xmlns="http://www.w3.org/2000/svg">
<path d="M8.0002 9.42422C8.7872 9.42422 9.4252 8.78622 9.4252 7.99922C9.4252 7.21221 8.7872 6.57422 8.0002 6.57422C7.21319 6.57422 6.5752 7.21221 6.5752 7.99922C6.5752 8.78622 7.21319 9.42422 8.0002 9.42422Z" fill="#61DAFB"/>
<path d="M13.4123 5.64922C13.1373 5.54922 12.8498 5.44922 12.5498 5.36172C12.6248 5.06172 12.6873 4.76172 12.7373 4.47422C12.9998 2.82422 12.7123 1.66172 11.9123 1.21172C11.6748 1.07422 11.4123 1.01172 11.1123 1.01172C10.2373 1.01172 9.1248 1.66172 7.9998 2.74922C6.8748 1.66172 5.7623 1.01172 4.8873 1.01172C4.5873 1.01172 4.3248 1.07422 4.0873 1.21172C3.2873 1.67422 2.9998 2.83672 3.2623 4.47422C3.3123 4.76172 3.3748 5.06172 3.4498 5.36172C3.1498 5.44922 2.8623 5.53672 2.5873 5.64922C1.0248 6.24922 0.174805 7.07422 0.174805 7.99922C0.174805 8.92422 1.0373 9.74922 2.5873 10.3492C2.8623 10.4492 3.1498 10.5492 3.4498 10.6367C3.3748 10.9367 3.3123 11.2367 3.2623 11.5242C2.9998 13.1742 3.2873 14.3367 4.0873 14.7867C4.3248 14.9242 4.5873 14.9867 4.8873 14.9867C5.7748 14.9867 6.8873 14.3367 7.9998 13.2492C9.1248 14.3367 10.2373 14.9867 11.1123 14.9867C11.4123 14.9867 11.6748 14.9242 11.9123 14.7867C12.7123 14.3242 12.9998 13.1617 12.7373 11.5242C12.6873 11.2367 12.6248 10.9367 12.5498 10.6367C12.8498 10.5492 13.1373 10.4617 13.4123 10.3492C14.9748 9.74922 15.8248 8.92422 15.8248 7.99922C15.8248 7.07422 14.9748 6.24922 13.4123 5.64922ZM11.5623 1.83672C12.0748 2.13672 12.2498 3.06172 12.0373 4.37422C11.9998 4.63672 11.9373 4.91172 11.8623 5.19922C11.2123 5.04922 10.5248 4.94922 9.7998 4.88672C9.3748 4.28672 8.9373 3.74922 8.4998 3.26172C9.4248 2.34922 10.3623 1.72422 11.1248 1.72422C11.2873 1.72422 11.4373 1.76172 11.5623 1.83672ZM10.1623 9.24922C9.9373 9.64922 9.6748 10.0492 9.3998 10.4492C8.9373 10.4867 8.4748 10.4992 7.9998 10.4992C7.5123 10.4992 7.0498 10.4867 6.5998 10.4492C6.3248 10.0492 6.0748 9.64922 5.8498 9.24922C5.6123 8.83672 5.3873 8.41172 5.1873 7.99922C5.3873 7.58672 5.6123 7.16172 5.8498 6.74922C6.0748 6.34922 6.3373 5.94922 6.6123 5.54922C7.0748 5.51172 7.5373 5.49922 8.0123 5.49922C8.4998 5.49922 8.9623 5.51172 9.4123 5.54922C9.6873 5.94922 9.9373 6.34922 10.1623 6.74922C10.3998 7.16172 10.6248 7.58672 10.8248 7.99922C10.6123 8.41172 10.3998 8.82422 10.1623 9.24922ZM11.1998 8.83672C11.3873 9.27422 11.5373 9.69922 11.6748 10.1242C11.2498 10.2242 10.7998 10.2992 10.3248 10.3617C10.4748 10.1242 10.6373 9.87422 10.7748 9.61172C10.9248 9.34922 11.0623 9.08672 11.1998 8.83672ZM7.9998 12.2242C7.6998 11.8992 7.4123 11.5492 7.1373 11.1867C7.4248 11.1992 7.7123 11.2117 7.9998 11.2117C8.2873 11.2117 8.5748 11.1992 8.8623 11.1867C8.5873 11.5492 8.2998 11.8992 7.9998 12.2242ZM5.6748 10.3492C5.1998 10.2867 4.7498 10.2117 4.3248 10.1117C4.4623 9.69922 4.6123 9.26172 4.7998 8.82422C4.9373 9.07422 5.0748 9.33672 5.2248 9.58672C5.3748 9.86172 5.5248 10.0992 5.6748 10.3492ZM4.7998 7.16172C4.6123 6.72422 4.4623 6.29922 4.3248 5.87422C4.7498 5.77422 5.1998 5.69922 5.6748 5.63672C5.5248 5.87422 5.3623 6.12422 5.2248 6.38672C5.0748 6.64922 4.9373 6.91172 4.7998 7.16172ZM7.9998 3.77422C8.2998 4.09922 8.5873 4.44922 8.8623 4.81172C8.5748 4.79922 8.2873 4.78672 7.9998 4.78672C7.7123 4.78672 7.4248 4.79922 7.1373 4.81172C7.4123 4.44922 7.6998 4.09922 7.9998 3.77422ZM10.7748 6.39922L10.3248 5.64922C10.7998 5.71172 11.2498 5.78672 11.6748 5.88672C11.5373 6.29922 11.3873 6.73672 11.1998 7.17422C11.0623 6.91172 10.9248 6.64922 10.7748 6.39922ZM3.9623 4.37422C3.7498 3.06172 3.9248 2.13672 4.4373 1.83672C4.5623 1.76172 4.7123 1.72422 4.8748 1.72422C5.6248 1.72422 6.5623 2.33672 7.4998 3.26172C7.0623 3.73672 6.6248 4.28672 6.1998 4.88672C5.4748 4.94922 4.7873 5.06172 4.1373 5.19922C4.0623 4.91172 4.0123 4.63672 3.9623 4.37422ZM0.874805 7.99922C0.874805 7.41172 1.5873 6.78672 2.8373 6.32422C3.0873 6.22422 3.3623 6.13672 3.6373 6.06172C3.8373 6.68672 4.0873 7.34922 4.3873 8.01172C4.0873 8.67422 3.8248 9.32422 3.6373 9.94922C1.9123 9.44922 0.874805 8.69922 0.874805 7.99922ZM4.4373 14.1617C3.9248 13.8617 3.7498 12.9367 3.9623 11.6242C3.9998 11.3617 4.0623 11.0867 4.1373 10.7992C4.7873 10.9492 5.4748 11.0492 6.1998 11.1117C6.6248 11.7117 7.0623 12.2492 7.4998 12.7367C6.5748 13.6492 5.6373 14.2742 4.8748 14.2742C4.7123 14.2742 4.5623 14.2367 4.4373 14.1617ZM12.0373 11.6242C12.2498 12.9367 12.0748 13.8617 11.5623 14.1617C11.4373 14.2367 11.2873 14.2742 11.1248 14.2742C10.3748 14.2742 9.4373 13.6617 8.4998 12.7367C8.9373 12.2617 9.3748 11.7117 9.7998 11.1117C10.5248 11.0492 11.2123 10.9367 11.8623 10.7992C11.9373 11.0867 11.9873 11.3617 12.0373 11.6242ZM13.1623 9.67422C12.9123 9.77422 12.6373 9.86172 12.3623 9.93672C12.1623 9.31172 11.9123 8.64922 11.6123 7.98672C11.9123 7.32422 12.1748 6.67422 12.3623 6.04922C14.0873 6.54922 15.1248 7.29922 15.1248 7.99922C15.1248 8.58672 14.3998 9.21172 13.1623 9.67422Z" fill="#61DAFB"/>
</svg>
