<svg width="16" height="16" viewBox="0 0 16 16" fill="none" xmlns="http://www.w3.org/2000/svg">
<path fill-rule="evenodd" clip-rule="evenodd" d="M8 0C9.58225 0 11.129 0.469192 12.4446 1.34824C13.7602 2.22729 14.7855 3.47672 15.391 4.93853C15.9965 6.40034 16.155 8.00887 15.8463 9.56072C15.5376 11.1126 14.7757 12.538 13.6569 13.6569C12.538 14.7757 11.1126 15.5376 9.56072 15.8463C8.00887 16.155 6.40034 15.9965 4.93853 15.391C3.47672 14.7855 2.22729 13.7602 1.34824 12.4446C0.469192 11.129 0 9.58225 0 8C0 5.87827 0.842854 3.84344 2.34315 2.34315C3.84344 0.842854 5.87827 0 8 0Z" fill="#CC6699"/>
<path d="M12.9385 3.46865C12.5821 2.05767 10.2647 1.59567 8.07144 2.38005C6.69785 2.84604 5.42881 3.58108 4.33697 4.54305C3.12906 5.68387 2.93626 6.67711 3.01552 7.092C3.29656 8.55633 5.28239 9.51325 6.0991 10.2233V10.2272C5.85852 10.347 4.09584 11.2489 3.68215 12.1683C3.24709 13.14 3.75128 13.837 4.08572 13.9306C4.58784 14.0527 5.1152 14.013 5.59383 13.817C6.07245 13.6211 6.47832 13.2787 6.75448 12.8381C6.98288 12.4811 7.12577 12.0753 7.17182 11.6528C7.21787 11.2304 7.16582 10.8029 7.01978 10.4043C7.41308 10.3028 7.82211 10.2791 8.22433 10.3345C9.6048 10.4974 9.87572 11.3675 9.82401 11.7319C9.79969 11.8616 9.74799 11.9845 9.67244 12.0922C9.59688 12.1999 9.49924 12.29 9.38615 12.3562C9.28947 12.4169 9.25968 12.4374 9.26811 12.4828C9.27991 12.548 9.32432 12.5458 9.40694 12.5316C9.6144 12.4656 9.79719 12.3377 9.93124 12.1648C10.0653 11.9918 10.1443 11.7819 10.1579 11.5627C10.191 10.7114 9.38109 9.75446 7.94666 9.77887C7.53002 9.76648 7.11423 9.82402 6.71626 9.94914L6.65556 9.88103C5.76859 8.92581 4.12956 8.24984 4.1987 6.96543C4.22399 6.49833 4.38475 5.26897 7.34635 3.77741C9.77455 2.55543 11.7182 2.892 12.0543 3.63722C12.5344 4.70197 11.0156 6.67995 8.49412 6.96543C8.21543 7.02256 7.92757 7.0156 7.65191 6.94505C7.37625 6.8745 7.11985 6.74219 6.90175 6.55792C6.7691 6.41035 6.74942 6.40411 6.69996 6.43135C6.61958 6.47619 6.67073 6.60673 6.69996 6.68392C6.79654 6.85961 6.92687 7.01406 7.08333 7.13822C7.23978 7.26239 7.41921 7.35377 7.61109 7.407C8.6025 7.62421 9.63645 7.52096 10.5665 7.11187C12.0959 6.51649 13.2887 4.85635 12.9385 3.46865ZM6.43859 10.6603C6.54969 11.049 6.54401 11.4622 6.42229 11.8477C6.40918 11.8878 6.39475 11.9275 6.37901 11.9668C6.36327 12.0062 6.34622 12.044 6.32786 12.0804C6.23265 12.2754 6.11018 12.4557 5.9642 12.6156C5.50722 13.119 4.86814 13.3097 4.5944 13.1491C4.29875 12.976 4.44658 12.266 4.97662 11.7001C5.38403 11.2936 5.85356 10.9559 6.36721 10.7L6.43859 10.6603Z" fill="white"/>


</svg>
