<svg width="16" height="16" viewBox="0 0 16 16" fill="none" xmlns="http://www.w3.org/2000/svg">
<path d="M13.4184 0.251536L12.5542 0.305411L12.6216 2.10254C12.6251 2.20191 12.5104 2.25991 12.4323 2.19829L11.8536 1.74204L11.1679 2.26229C11.1503 2.27569 11.1292 2.2838 11.1071 2.28565C11.085 2.2875 11.0628 2.28303 11.0432 2.27275C11.0235 2.26247 11.0072 2.24681 10.9962 2.2276C10.9851 2.20839 10.9797 2.18643 10.9807 2.16429L11.0578 0.398911L2.48431 0.935036C2.28036 0.947743 2.08947 1.03967 1.95237 1.1912C1.81528 1.34273 1.74285 1.54184 1.75056 1.74604L2.23306 14.6008C2.24042 14.7972 2.32138 14.9836 2.45986 15.1231C2.59834 15.2626 2.78421 15.3449 2.98056 15.3537L13.4321 15.8229C13.5377 15.8276 13.6432 15.8109 13.7422 15.7737C13.8412 15.7365 13.9317 15.6797 14.0082 15.6067C14.0847 15.5336 14.1455 15.4458 14.1871 15.3486C14.2287 15.2513 14.2502 15.1467 14.2502 15.0409V1.03304C14.2502 0.92608 14.2283 0.82025 14.1859 0.722084C14.1434 0.623917 14.0813 0.535498 14.0033 0.462286C13.9254 0.389061 13.8333 0.332581 13.7327 0.296334C13.6321 0.260086 13.5251 0.24484 13.4184 0.251536ZM8.23593 2.89991C10.2744 2.89991 11.3877 3.99029 11.3877 6.06479C11.1122 6.27891 9.06018 6.42479 9.06018 6.12016C9.10343 4.95766 8.58306 4.90679 8.29393 4.90679C8.01918 4.90679 7.55656 4.98954 7.55656 5.61229C7.55656 7.14829 11.5178 7.06541 11.5178 10.1653C11.5178 11.909 10.1009 12.8722 8.29393 12.8722C6.42893 12.8722 4.79931 12.1177 4.98331 9.50179C5.05556 9.19466 7.42643 9.26766 7.42643 9.50179C7.39768 10.5812 7.64331 10.8987 8.26481 10.8987C8.74193 10.8987 8.95893 10.6358 8.95893 10.1929C8.95893 8.61529 5.05556 8.56004 5.05556 5.66779C5.05556 4.00716 6.19768 2.89991 8.23593 2.89991Z" fill="#FF4785"/>
</svg>
