<svg width="16" height="16" viewBox="0 0 16 16" fill="none" xmlns="http://www.w3.org/2000/svg">
<path d="M12.25 0H3.75C1.67893 0 0 1.67893 0 3.75V12.25C0 14.3211 1.67893 16 3.75 16H12.25C14.3211 16 16 14.3211 16 12.25V3.75C16 1.67893 14.3211 0 12.25 0Z" fill="#007ACC"/>
<path d="M3.53827 8.05357L3.5332 8.70882H5.6157V14.6263H7.08877V8.70882H9.17127V8.06626C9.17127 7.71069 9.1637 7.41357 9.15352 7.40594C9.14589 7.39582 7.87858 7.39069 6.34208 7.39325L3.54589 7.40088L3.53827 8.05357ZM12.9105 7.38226C13.3168 7.48388 13.6267 7.66419 13.9111 7.95876C14.0585 8.11626 14.2768 8.40326 14.2946 8.47182C14.2997 8.49213 13.6038 8.95944 13.1823 9.22101C13.167 9.23119 13.106 9.16513 13.0375 9.06357C12.8318 8.76388 12.6159 8.63432 12.2857 8.61151C11.8006 8.57844 11.4883 8.83244 11.4908 9.25657C11.4908 9.38101 11.5086 9.45463 11.5594 9.55626C11.666 9.77719 11.8641 9.90926 12.4864 10.1784C13.6318 10.6712 14.1219 10.9963 14.4267 11.4584C14.767 11.974 14.8432 12.7969 14.6121 13.4089C14.3581 14.0743 13.7283 14.5264 12.8419 14.6763C12.5676 14.7245 11.9175 14.7169 11.6229 14.6636C10.9803 14.5493 10.3708 14.2318 9.99495 13.8153C9.84764 13.6528 9.56064 13.2286 9.57845 13.1981C9.58602 13.188 9.65208 13.1474 9.7257 13.1042C9.79683 13.0636 10.0661 12.9086 10.32 12.7613L10.7797 12.4946L10.8762 12.6369C11.0108 12.8426 11.3054 13.1245 11.4832 13.2184C11.9936 13.4877 12.6946 13.4496 13.04 13.1398C13.1873 13.0051 13.2483 12.8654 13.2483 12.6598C13.2483 12.4743 13.2254 12.3931 13.1289 12.2534C13.0045 12.0756 12.7505 11.9258 12.0292 11.6134C11.2038 11.2578 10.8483 11.0369 10.5232 10.6864C10.3353 10.4833 10.1575 10.1581 10.0838 9.88638C10.0229 9.66038 10.0076 9.09401 10.0559 8.86544C10.226 8.06801 10.828 7.51182 11.6965 7.34669C11.9785 7.29338 12.6336 7.31369 12.9105 7.38226Z" fill="white"/>
</svg>
